# xmcd CD database file
# Copyright (C) 1997 Ti Kan
#
# Track frame offsets:
#  150
#  12662
#  26797
#  36147
#  49187
#  59775
#  72702
#  85792
#  100722
#  115340
#  128610
#  141202
#  151752
#  164130
#  174837
#  185427
#  196327
#  207147
#  218957
#  229637
#  242522
#  254297
#  266815
#  277550
#  290402
#
# Disc length: 4052 seconds
#
# Revision: 2
# Processed by: cddbd v1.4PL0 Copyright (c) Steve Scherf et al.
# Submitted via: Gronk 1.4
#
DISCID=6d0fd219
DTITLE=Jimmy Reed - Speak The Lyrics To Me, Mama Reed
DYEAR=1900
DGENRE=blues
TTITLE0=High And Lonesome
TTITLE1=You Don't Have To Go
TTITLE2=Shoot My Baby
TTITLE3=You Upset My Mind
TTITLE4=Ain't That Lovin' You Baby
TTITLE5=Can't Stand to See You Go
TTITLE6=You've Got Me Dizzy
TTITLE7=Honey, Where You Going
TTITLE8=Little Rain
TTITLE9=The Sun Is Shining
TTITLE10=Honest I Do
TTITLE11=My Bitter Seed
TTITLE12=I'm Gonna Get My Baby
TTITLE13=Going To New York
TTITLE14=I Told You Baby
TTITLE15=Take Out Some Insurance
TTITLE16=Baby What You Want Me To Do
TTITLE17=Hush Hush
TTITLE18=Found Love
TTITLE19=Big Boss Man
TTITLE20=Close Together
TTITLE21=Bright Lights, Big City
TTITLE22=Oh John
TTITLE23=Same, Shame, Shame
TTITLE24=I'm The Man Down There
EXTD=
EXTT0=
EXTT1=
EXTT2=
EXTT3=
EXTT4=
EXTT5=
EXTT6=
EXTT7=
EXTT8=
EXTT9=
EXTT10=
EXTT11=
EXTT12=
EXTT13=
EXTT14=
EXTT15=
EXTT16=
EXTT17=
EXTT18=
EXTT19=
EXTT20=
EXTT21=
EXTT22=
EXTT23=
EXTT24=
PLAYORDER=
